<svg xmlns="http://www.w3.org/2000/svg" width="50" height="50"><g transform="matrix(2.143304 0 0 2.130939 -.71964 -2177.1753)"><path fill="#b71c1c" stroke="#b71c1c" stroke-width="2.5" d="M16.297 1043.776l-8.622-.012-6.088-6.105.012-8.622 6.105-6.088 8.622.012 6.088 6.105-.012 8.622z"/><path fill="#eceff1" d="M5.388 1028.257c-.642-.78 2.14.73 5.588.74 1.44.088 1.983.505 2.387.928.906.854 1.103 1.287 2.25.735.467-.225 1.042-1.556 1.69-1.7.506-.074 1.247.564 1.433.748.203.2.387.386.58.475-.665.036-1.587 1.588-1.61 2.907.133 3.685-1.526 3.48-3.158 5.284-.52.496-.812 1.534-.812 2.482l-.685-.02c-.406.01-.87-.52-1.094-.873-.43-.715-.872.655-1.54-.467.03-.37-1.78-.443-.74-1.3 2.46-1.74 3.66-2.107 3.608-2.63-.06-.62-1.502-.06-2.804-.12-2.15-.1-1.914-1.462-2.105-2.097-1.806-1.005 1.388-1.478-.014-1.775-.685-.11-1.894.146-2.15-1.04.23.283 3.227-.296 2.02-.485-1.677-.76-2.148-.353-2.844-1.783z"/><circle cx="17.593" cy="1030.139" r=".254"/></g></svg>