<?xml version="1.0" encoding="UTF-8"?>
<svg width="16.675mm" height="16.675mm" clip-rule="evenodd" fill-rule="evenodd" image-rendering="optimizeQuality" shape-rendering="geometricPrecision" text-rendering="geometricPrecision" version="1.1" viewBox="0 0 445.67 445.33" xmlns="http://www.w3.org/2000/svg" xmlns:cc="http://creativecommons.org/ns#" xmlns:dc="http://purl.org/dc/elements/1.1/" xmlns:rdf="http://www.w3.org/1999/02/22-rdf-syntax-ns#"><metadata><rdf:RDF><cc:Work rdf:about=""><dc:format>image/svg+xml</dc:format><dc:type rdf:resource="http://purl.org/dc/dcmitype/StillImage"/><dc:title/></cc:Work></rdf:RDF></metadata><defs><linearGradient id="a" x1="110.67" x2="334.32" y1="414.8" y2="30.19" gradientTransform="translate(0,1555.7)" gradientUnits="userSpaceOnUse"><stop stop-color="#d72430" offset="0"/><stop stop-color="#fda259" offset="1"/></linearGradient></defs><g transform="translate(.33427 -1555.5)"><path d="m30 1666.7c62-107 198-143 304-81 107 62 143 198 81 304-62 107-198 143-304 81-107-62-143-198-81-304z" fill="url(#a)"/><g transform="matrix(1.2194 .11236 -.11292 1.2255 -22.251 1478.4)" stroke="#fefefe" stroke-linejoin="round" stroke-width="23.041"><g stroke="#fefefe" stroke-linejoin="round" stroke-width="23.041"><path d="m310 102-154 120 52 18-73 106 148-120-47-19z" fill="#fefefe" stroke="#fefefe" stroke-linejoin="round" stroke-width="23.041"/></g></g></g><g transform="translate(-5.1432e-7 .065189)" fill="#474443" stroke-width="7.0714" aria-label="Statically"><path d="m643.22 326.74q-24.137 0-48.274-8.6743-23.76-9.0514-42.617-26.777l31.68-38.091q13.2 11.314 29.04 18.48 16.217 7.1657 31.68 7.1657 17.349 0 25.646-6.4114 8.6743-6.4114 8.6743-17.349 0-5.6571-2.64-9.8057-2.2629-4.1486-7.1657-7.1657-4.5257-3.3943-11.314-6.0343-6.4114-3.0171-14.331-6.4114l-32.057-13.577q-9.4286-3.7714-18.48-9.8057-8.6743-6.0343-15.84-13.954-6.7886-8.2971-10.937-18.857-4.1486-10.937-4.1486-24.514 0-15.086 6.4114-28.286 6.4114-13.577 18.103-23.383 11.691-10.183 27.531-15.84 16.217-5.6571 35.451-5.6571 21.497 0 42.24 8.2971 21.12 8.2971 36.96 24.137l-28.286 35.074q-12.069-9.4286-24.137-14.331-12.069-5.28-26.777-5.28-14.331 0-23.006 6.0343-8.2971 5.6571-8.2971 16.217 0 5.6571 2.64 9.8057 3.0171 3.7714 7.92 7.1657 5.28 3.0171 12.069 6.0343 6.7886 2.64 14.709 6.0343l31.68 12.823q22.629 9.0514 35.451 24.891 13.2 15.84 13.2 41.863 0 15.463-6.4114 29.417-6.0343 13.577-18.103 24.137-11.691 10.183-29.04 16.594-17.349 6.0343-39.223 6.0343z"/><path d="m835.29 326.74q-17.349 0-29.794-5.28-12.069-5.28-19.989-14.709-7.5428-9.4286-11.314-22.629-3.3943-13.577-3.3943-29.794v-75.806h-25.646v-41.108l28.663-2.2629 6.4114-49.783h46.011v49.783h44.88v43.371h-44.88v75.051q0 15.84 6.4114 23.006 6.7886 6.7886 17.726 6.7886 4.5257 0 9.0514-1.1314 4.9028-1.1314 8.6743-2.64l8.6743 40.354q-7.5428 2.2628-17.726 4.5257-10.183 2.2629-23.76 2.2629z"/><path d="m947.41 326.74q-12.823 0-23.383-4.5257-10.183-4.1486-17.349-11.691-7.1657-7.92-11.314-18.103-3.7714-10.183-3.7714-22.251 0-29.417 24.891-46.011t80.331-22.251q-0.75429-12.446-7.5428-19.611-6.4114-7.5428-21.874-7.5428-12.069 0-24.137 4.5257-11.691 4.5257-25.269 12.446l-19.989-36.583q18.103-10.937 37.714-17.726 19.989-6.7886 42.24-6.7886 36.206 0 55.063 20.743 19.234 20.366 19.234 63.737v107.11h-45.257l-3.7714-19.234h-1.5086q-12.069 10.56-25.269 17.349-13.2 6.4114-29.04 6.4114zm18.857-42.994q9.4286 0 16.217-4.1486 6.7886-4.1486 14.331-11.691v-32.811q-29.417 4.1486-40.731 12.069t-11.314 18.857q0 9.0514 5.6571 13.577 6.0343 4.1486 15.84 4.1486z"/><path d="m1164.6 326.74q-17.348 0-29.794-5.28-12.068-5.28-19.988-14.709-7.5429-9.4286-11.314-22.629-3.3943-13.577-3.3943-29.794v-75.806h-25.646v-41.108l28.663-2.2629 6.4114-49.783h46.011v49.783h44.88v43.371h-44.88v75.051q0 15.84 6.4115 23.006 6.7885 6.7886 17.726 6.7886 4.5257 0 9.0514-1.1314 4.9029-1.1314 8.6743-2.64l8.6743 40.354q-7.5429 2.2628-17.726 4.5257-10.183 2.2629-23.76 2.2629z"/><path d="m1236.9 322.22v-187.06h55.44v187.06zm27.531-214.59q-13.954 0-23.006-7.92-9.0514-8.2971-9.0514-21.12 0-12.823 9.0514-20.743 9.0515-7.92 23.006-7.92 14.331 0 23.006 7.92 9.0514 7.92 9.0514 20.743t-9.0514 21.12q-8.6743 7.92-23.006 7.92z"/><path d="m1422.2 326.74q-19.611 0-36.583-6.4114-16.594-6.7886-29.04-19.234-12.446-12.446-19.611-30.549-7.1657-18.48-7.1657-41.863t7.92-41.486q7.92-18.48 21.12-30.926 13.577-12.446 31.303-18.857 17.726-6.7886 36.96-6.7886 17.348 0 30.548 5.6571 13.577 5.6571 24.137 14.331l-26.023 35.829q-13.2-10.937-25.268-10.937-20.366 0-32.057 14.331t-11.691 38.846q0 24.514 11.691 38.846 12.068 14.331 30.171 14.331 9.0514 0 17.348-3.7714 8.6743-4.1486 16.217-9.8057l21.874 36.206q-13.954 12.069-30.171 17.349-16.217 4.9028-31.68 4.9028z"/><path d="m1560.3 326.74q-12.823 0-23.383-4.5257-10.183-4.1486-17.349-11.691-7.1657-7.92-11.314-18.103-3.7715-10.183-3.7715-22.251 0-29.417 24.891-46.011t80.331-22.251q-0.7543-12.446-7.5428-19.611-6.4114-7.5428-21.874-7.5428-12.068 0-24.137 4.5257-11.691 4.5257-25.268 12.446l-19.988-36.583q18.103-10.937 37.714-17.726 19.988-6.7886 42.24-6.7886 36.206 0 55.063 20.743 19.234 20.366 19.234 63.737v107.11h-45.257l-3.7715-19.234h-1.5085q-12.069 10.56-25.269 17.349-13.2 6.4114-29.04 6.4114zm18.857-42.994q9.4286 0 16.217-4.1486 6.7886-4.1486 14.331-11.691v-32.811q-29.417 4.1486-40.731 12.069-11.314 7.92-11.314 18.857 0 9.0514 5.6571 13.577 6.0343 4.1486 15.84 4.1486z"/><path d="m1762.9 326.74q-14.331 0-24.137-4.5257t-15.84-12.446q-5.6572-8.2971-8.2971-19.611-2.64-11.691-2.64-26.023v-206.3h55.44v208.56q0 8.6743 3.0171 12.069 3.3943 3.3943 6.7886 3.3943 1.8857 0 3.0171 0 1.5086 0 3.7714-0.75428l6.7886 41.108q-4.5257 1.8857-11.691 3.0171-6.7886 1.5086-16.217 1.5086z"/><path d="m1870.5 326.74q-14.331 0-24.137-4.5257t-15.84-12.446q-5.6571-8.2971-8.2971-19.611-2.64-11.691-2.64-26.023v-206.3h55.44v208.56q0 8.6743 3.0172 12.069 3.3942 3.3943 6.7885 3.3943 1.8857 0 3.0172 0 1.5085 0 3.7714-0.75428l6.7885 41.108q-4.5257 1.8857-11.691 3.0171-6.7885 1.5086-16.217 1.5086z"/><path d="m1947.8 395.38q-8.6743 0-14.709-1.1314-6.0343-0.75428-11.691-2.64l9.8057-42.24q2.64 0.75429 6.0343 1.5086t6.4114 0.75428q13.954 0 21.497-6.7886 7.5429-6.7886 11.314-17.726l2.64-9.8057-72.034-182.16h55.817l26.777 80.331q4.1485 12.823 7.5428 26.023t7.1657 27.154h1.5086q3.0171-13.2 6.0342-26.4 3.3943-13.577 6.7886-26.777l22.628-80.331h53.177l-64.868 188.95q-6.7885 17.726-14.331 30.926-7.1657 13.577-16.971 22.251-9.4285 9.0514-21.874 13.577-12.069 4.5257-28.663 4.5257z"/></g></svg>
