<svg xmlns="http://www.w3.org/2000/svg" xmlns:xlink="http://www.w3.org/1999/xlink" width="80" height="80" version="1.1" viewBox="0 0 80 80"><title>core logo full</title><desc>Created with Sketch.</desc><g id="Symbols" fill="none" fill-rule="evenodd" stroke="none" stroke-width="1"><g id="logo/full/core"><g id="core-logo-full"><g id="icon"><path id="octagon" fill="#F40D12" d="M21.4051667,1.73584669 L1.73548036,21.4072527 C0.624265718,22.5185645 2.47207424e-15,24.0257684 2.66453526e-15,25.5973319 L-2.66453526e-15,53.4189083 C-2.47206324e-15,54.9905616 0.624336832,56.497844 1.73566352,57.6091707 L21.4051981,77.2787053 C22.5165248,78.390032 24.0238072,79.0143688 25.5954605,79.0143688 L53.4168852,79.0143688 C54.9885384,79.0143688 56.4958209,78.390032 57.6071476,77.2787053 L77.2766822,57.6091707 C78.3880088,56.497844 79.0123457,54.9905616 79.0123457,53.4189083 L79.0123457,25.5973319 C79.0123457,24.0257684 78.38808,22.5185645 77.2768653,21.4072527 L57.607179,1.73584669 C56.4958374,0.62440795 54.9884765,9.98904793e-15 53.4167334,8.8817842e-15 L25.5956123,8.8817842e-16 C24.0238692,1.17690293e-15 22.5165083,0.62440795 21.4051667,1.73584669 Z"/><path id="Hand" fill="#FFF" d="M38.5646135,68.1481481 C51.6542509,68.1481481 54.7601611,56.1415335 54.7601611,56.1415335 L62.2728536,34.5557692 C62.2728536,34.5557692 62.9512989,32.3150324 62.8268135,32.2901353 C55.8307353,30.9830389 54.343135,35.9126598 54.343135,35.9126598 C54.343135,35.9126598 51.6542509,42.8962894 51.2372249,42.8962894 C50.8201989,42.8962894 50.7704047,42.3796751 50.7704047,42.3796751 L50.7704047,17.2896474 C50.7704047,17.2896474 50.9011144,14.0530276 47.5773548,14.0530276 C44.2535952,14.0530276 44.4216505,17.2958717 44.4216505,17.2958717 L44.4278748,35.8317443 C44.4278748,35.8317443 44.4714447,36.5786566 43.8490178,36.5786566 C43.2950578,36.5786566 43.3261792,35.8566414 43.3261792,35.8566414 L43.3261792,13.5239648 C43.3261792,13.5239648 43.5315801,9.87654321 40.1704749,9.87654321 C36.8093697,9.87654321 36.9898735,13.5488618 36.9898735,13.5488618 L36.9587522,35.5827735 C36.9587522,35.5827735 37.002322,36.2612188 36.4483621,36.2612188 C35.9317478,36.2612188 35.9504206,35.5889978 35.9504206,35.5889978 L35.9504206,17.1153679 C35.9504206,17.1153679 36.1371487,13.3559095 32.7138008,13.3559095 C29.3526956,13.3559095 29.5331994,17.1838348 29.5331994,17.1838348 L29.5020781,36.6906934 C29.5020781,36.6906934 29.5643208,37.2571019 29.0352579,37.2571019 C28.4750737,37.2571019 28.4875223,36.6906934 28.4875223,36.6906934 L28.4626252,24.8957039 C28.4626252,24.8957039 28.4937465,21.6341871 25.6679285,21.6341871 C22.6616066,21.6341871 22.717625,24.8957039 22.717625,24.8957039 L22.717625,50.3529635 C22.7362978,50.3467392 21.9582642,68.1481481 38.5646135,68.1481481 Z"/></g></g></g></g></svg>