<svg xmlns="http://www.w3.org/2000/svg" xmlns:xlink="http://www.w3.org/1999/xlink" id="Ebene_1" x="0" y="0" enable-background="new 0 0 56 56" version="1.1" viewBox="0 0 56 56" xml:space="preserve"><style type="text/css">.st0{fill:#0097a7}.st1{fill:#fff}.st2{fill:#00bcd4}</style><g id="Ebene_2"><g id="Ebene_3"><path id="XMLID_16_" d="M28,50.9V5.6c0,0,10.1,0.7,17.6,3.2c0,0-0.1,8.1-0.1,16.1c0,11.2-8.6,23.2-17.5,25.4 M49.4,5.9c-9.1-3.1-20.7-4-21.4-4c-0.7,0-12.1,0.9-21.4,4c0,0,0,9.8,0,19.5C6.6,39,17.3,53.4,28,56c10.7-2.7,21.4-17,21.4-30.5 C49.4,15.8,49.4,5.9,49.4,5.9" class="st0"/><polygon id="XMLID_15_" points="45.4 38.2 27.4 53.7 27.7 2.9 45.9 7" class="st1"/></g><g id="Ebene_2_1_"><path id="XMLID_12_" d="M28,49.9V3.4c0,0,9.8,1.4,17.5,4c0,0,0.1,8.3,0.1,16.5c0,11.2-8.6,24.7-17.5,26.9 M49.4,4.8 C40.2,1.7,28.7,0,28,0S15.9,1.6,6.6,4.8c0,0,0,9.8,0,19.5c0,13.5,10.6,27.9,21.4,30.5c10.7-2.7,21.4-17,21.4-30.5 C49.4,14.5,49.4,4.8,49.4,4.8" class="st2"/></g><g id="Ebene_1_2_"><path id="XMLID_7_" d="M41.4,25.5c0-7.3-5.9-13.4-13.4-13.4v2.7c1.1,1.6,1.9,3.3,2.5,5.3H28v2.6h3.1 c0.1,0.9,0.2,1.7,0.2,2.6s-0.1,1.8-0.2,2.6H28v2.6h2.5c-0.6,1.9-1.5,3.7-2.5,5.3v2.7C35.3,38.7,41.4,32.8,41.4,25.5z M38.3,22.7 c0.2,0.9,0.3,1.7,0.3,2.6s-0.1,1.8-0.3,2.6h-4.6c0.1-0.9,0.2-1.7,0.2-2.6s-0.1-1.8-0.2-2.6H38.3L38.3,22.7z M37.3,20.1h-3.9 c-0.5-1.7-1-3.3-1.8-4.7C33.9,16.2,35.9,17.9,37.3,20.1z M31.4,35.5c0.8-1.5,1.4-3.1,1.8-4.8h3.9C35.9,33,33.9,34.7,31.4,35.5z" class="st2"/><path id="XMLID_2_" d="M28,38.7V36c-1.1-1.6-1.9-3.3-2.5-5.3H28v-2.6h-3.1c-0.1-0.9-0.2-1.7-0.2-2.6s0.1-1.8,0.2-2.6 H28v-2.6h-2.5c0.6-1.9,1.5-3.7,2.5-5.3v-2.7c-7.3,0-13.4,5.9-13.4,13.4C14.6,32.8,20.7,38.7,28,38.7z M22.2,22.7 c-0.1,0.9-0.2,1.7-0.2,2.6s0.1,1.8,0.2,2.6h-4.5c-0.2-0.9-0.3-1.7-0.3-2.6s0.1-1.8,0.3-2.6H22.2L22.2,22.7z M24.6,15.4 c-0.8,1.5-1.4,3.1-1.8,4.7h-3.9C20.1,17.9,22.1,16.2,24.6,15.4z M18.7,30.7h3.9c0.5,1.7,1,3.3,1.8,4.8 C22.1,34.7,20.1,33,18.7,30.7z" class="st1"/></g></g></svg>